<svg xmlns="http://www.w3.org/2000/svg" width="512" height="512" viewBox="0 0 512 512" version="1.1">
	<path d="M 207.315 51.081 C 203.014 52.354, 198.296 57.271, 197.041 61.791 C 196.414 64.048, 196.009 81.063, 196.006 105.250 L 196 145 191.500 145 L 187 145 187 128.400 L 187 111.800 183.600 108.400 L 180.200 105 147.116 105 L 114.032 105 110.766 107.916 L 107.500 110.831 107.186 127.802 L 106.871 144.773 97.186 145.170 C 86.497 145.609, 82.513 147.169, 79.636 152.040 C 78.149 154.557, 78 164.536, 78.004 261.654 C 78.007 367.057, 78.035 368.545, 80.026 371.810 C 84.054 378.418, 72.290 378, 254.218 377.996 C 417.379 377.993, 419.542 377.967, 422.759 376.005 C 424.552 374.912, 426.912 372.552, 428.005 370.759 C 429.955 367.561, 429.993 365.510, 429.995 262 C 429.997 163.531, 429.880 156.271, 428.248 153.071 C 424.618 145.952, 423.248 145.558, 400.195 145 L 379.530 144.500 377.827 130.820 C 376.032 116.401, 374.693 112.477, 370.419 109.115 C 365.888 105.551, 361.808 105.523, 335.004 108.873 C 320.977 110.626, 308.966 112.047, 308.312 112.030 C 307.436 112.008, 307.043 105.378, 306.812 86.750 C 306.463 58.484, 306.154 57.139, 299 52.681 C 295.559 50.537, 294.782 50.497, 253 50.320 C 228.739 50.217, 209.133 50.544, 207.315 51.081 M 93.766 160.918 L 90.500 163.836 90.234 260.668 C 90.037 332.096, 90.270 358.232, 91.122 360.290 C 92.829 364.417, 95.767 366, 101.723 366 L 107 366 107 262 L 107 158 102.016 158 C 97.922 158, 96.448 158.521, 93.766 160.918 M 187 262 L 187 366 191.500 366 L 196 366 196 262 L 196 158 191.500 158 L 187 158 187 262 M 381.541 160.750 C 382.113 163.957, 391.168 235.872, 394.037 260 C 395.116 269.075, 396.891 283.025, 397.982 291 C 399.072 298.975, 400.633 311.125, 401.452 318 C 402.271 324.875, 403.854 337.964, 404.970 347.086 C 406.087 356.208, 407 364.196, 407 364.836 C 407 366.948, 410.105 366.049, 413.077 363.077 L 416 360.154 416 263.027 C 416 157.523, 416.225 161.790, 410.528 159.195 C 408.911 158.458, 402.759 158, 394.478 158 L 381.050 158 381.541 160.750 M 307.082 332.750 L 307 366 311.299 366 L 315.598 366 315.174 362.250 C 314.940 360.188, 313.043 345.225, 310.956 329 L 307.164 299.500 307.082 332.750 M 43.941 411.108 C 25.548 425.467, 9.841 437.842, 9.036 438.608 C 7.784 439.798, 43.611 440, 255.345 440 C 408.458 440, 502.898 439.643, 502.541 439.067 C 502.224 438.553, 485.796 426.178, 466.034 411.567 L 430.104 385 253.743 385 L 77.381 385 43.941 411.108 M 67.615 410.804 L 49.730 425.500 152.445 425.755 C 208.938 425.895, 301.022 425.895, 357.076 425.755 L 458.992 425.500 441.410 410.750 L 423.828 396 254.664 396.054 L 85.500 396.109 67.615 410.804 M 5.344 444.546 C 4.352 447.130, 5.734 454.166, 7.773 456.913 C 8.829 458.336, 10.774 460.056, 12.096 460.735 C 13.984 461.706, 66.301 461.971, 256 461.971 C 445.699 461.971, 498.016 461.706, 499.904 460.735 C 504.178 458.538, 506.413 454.447, 506.458 448.733 L 506.500 443.500 256.219 443.248 C 30.958 443.021, 5.879 443.151, 5.344 444.546" stroke="none" fill="black" fill-rule="evenodd"/>
</svg>