<?xml version="1.0" standalone="no"?>
<!DOCTYPE svg PUBLIC "-//W3C//DTD SVG 20010904//EN"
 "http://www.w3.org/TR/2001/REC-SVG-20010904/DTD/svg10.dtd">
<svg version="1.0" xmlns="http://www.w3.org/2000/svg"
 width="256.000000pt" height="256.000000pt" viewBox="0 0 256.000000 256.000000"
 preserveAspectRatio="xMidYMid meet">

<g transform="translate(0.000000,256.000000) scale(0.100000,-0.100000)"
fill="#000000" stroke="none">
<path d="M1168 2432 c-15 -9 -259 -276 -543 -592 -573 -638 -569 -633 -605
-810 -24 -114 -25 -174 -5 -258 28 -117 105 -230 197 -288 56 -36 1244 -387
1284 -380 16 4 44 21 61 39 80 85 965 1162 974 1184 7 19 5 45 -7 94 -15 63
-15 73 0 136 19 76 14 104 -24 138 -26 24 -89 26 -115 5 -42 -34 -60 -99 -61
-218 l-1 -113 -424 -510 c-233 -281 -431 -520 -440 -531 -15 -20 -23 -18 -573
146 -411 122 -567 172 -592 191 -59 45 -87 107 -92 200 -5 92 7 141 42 174 48
45 59 43 630 -120 l537 -153 35 19 c32 19 1042 1171 1086 1240 13 21 17 41 14
64 -11 74 5 69 -678 221 -344 77 -637 140 -650 140 -12 0 -35 -8 -50 -18z
m424 -462 c204 -50 378 -95 385 -101 22 -19 15 -42 -34 -102 -77 -95 -58 -95
-505 13 -211 51 -391 97 -400 102 -32 16 -20 51 40 116 53 57 61 62 100 62 23
0 209 -41 414 -90z"/>
</g>
</svg>
