<?xml version="1.0" standalone="no"?>
<!DOCTYPE svg PUBLIC "-//W3C//DTD SVG 20010904//EN"
 "http://www.w3.org/TR/2001/REC-SVG-20010904/DTD/svg10.dtd">
<svg version="1.0" xmlns="http://www.w3.org/2000/svg"
 width="719.000000pt" height="982.000000pt" viewBox="0 0 719.000000 982.000000"
 preserveAspectRatio="xMidYMid meet">

<g transform="translate(0.000000,982.000000) scale(0.100000,-0.100000)"
fill="#000000" stroke="none">
<path d="M3525 8890 c-868 -59 -1493 -536 -1780 -1360 -151 -435 -208 -891
-250 -1980 -35 -930 -69 -1181 -186 -1374 -48 -80 -56 -113 -35 -154 44 -85
252 -207 481 -281 164 -53 481 -118 810 -165 l90 -12 -3 -70 c-11 -238 -101
-385 -333 -547 -53 -37 -152 -96 -220 -131 -122 -63 -202 -98 -664 -289 -401
-166 -686 -304 -812 -393 -87 -62 -239 -141 -366 -189 l-109 -42 129 -121
c206 -194 343 -303 578 -459 713 -475 1549 -771 2325 -823 192 -13 650 -13
842 0 566 39 1150 203 1743 489 363 176 652 361 960 616 118 98 313 279 311
289 -1 4 -38 23 -81 40 -114 47 -181 82 -368 195 -255 154 -436 241 -937 448
-331 137 -540 233 -675 313 -88 52 -133 87 -221 175 -92 91 -117 124 -149 188
-37 74 -39 85 -43 192 l-4 114 33 5 c19 3 90 13 159 22 292 38 680 124 871
194 168 61 320 165 359 246 27 54 24 70 -35 164 -119 194 -134 336 -160 1540
-8 382 -20 797 -25 921 -29 658 -160 1194 -370 1519 -99 152 -266 305 -420
384 -112 58 -222 91 -361 111 -280 38 -265 34 -388 97 -223 113 -409 147 -696
128z"/>
</g>
</svg>
