<svg id="visual" viewBox="0 0 450 900" width="450" height="900" xmlns="http://www.w3.org/2000/svg" xmlns:xlink="http://www.w3.org/1999/xlink" version="1.1"><path d="M53 0L55.3 10.7C57.7 21.3 62.3 42.7 65.2 64.2C68 85.7 69 107.3 67 128.8C65 150.3 60 171.7 60.8 193C61.7 214.3 68.3 235.7 71.3 257C74.3 278.3 73.7 299.7 71.2 321.2C68.7 342.7 64.3 364.3 61.3 385.8C58.3 407.3 56.7 428.7 58.7 450C60.7 471.3 66.3 492.7 69.2 514.2C72 535.7 72 557.3 69.5 578.8C67 600.3 62 621.7 58.5 643C55 664.3 53 685.7 54 707C55 728.3 59 749.7 62.2 771.2C65.3 792.7 67.7 814.3 68.2 835.8C68.7 857.3 67.3 878.7 66.7 889.3L66 900L0 900L0 889.3C0 878.7 0 857.3 0 835.8C0 814.3 0 792.7 0 771.2C0 749.7 0 728.3 0 707C0 685.7 0 664.3 0 643C0 621.7 0 600.3 0 578.8C0 557.3 0 535.7 0 514.2C0 492.7 0 471.3 0 450C0 428.7 0 407.3 0 385.8C0 364.3 0 342.7 0 321.2C0 299.7 0 278.3 0 257C0 235.7 0 214.3 0 193C0 171.7 0 150.3 0 128.8C0 107.3 0 85.7 0 64.2C0 42.7 0 21.3 0 10.7L0 0Z" fill="#15b998"></path><path d="M49 0L50.8 10.7C52.7 21.3 56.3 42.7 58.2 64.2C60 85.7 60 107.3 57 128.8C54 150.3 48 171.7 48.3 193C48.7 214.3 55.3 235.7 58.3 257C61.3 278.3 60.7 299.7 57.7 321.2C54.7 342.7 49.3 364.3 49.7 385.8C50 407.3 56 428.7 56.3 450C56.7 471.3 51.3 492.7 50.3 514.2C49.3 535.7 52.7 557.3 55.3 578.8C58 600.3 60 621.7 58.8 643C57.7 664.3 53.3 685.7 50.2 707C47 728.3 45 749.7 44.3 771.2C43.7 792.7 44.3 814.3 46.3 835.8C48.3 857.3 51.7 878.7 53.3 889.3L55 900L0 900L0 889.3C0 878.7 0 857.3 0 835.8C0 814.3 0 792.7 0 771.2C0 749.7 0 728.3 0 707C0 685.7 0 664.3 0 643C0 621.7 0 600.3 0 578.8C0 557.3 0 535.7 0 514.2C0 492.7 0 471.3 0 450C0 428.7 0 407.3 0 385.8C0 364.3 0 342.7 0 321.2C0 299.7 0 278.3 0 257C0 235.7 0 214.3 0 193C0 171.7 0 150.3 0 128.8C0 107.3 0 85.7 0 64.2C0 42.7 0 21.3 0 10.7L0 0Z" fill="#00abd9"></path><path d="M38 0L38.7 10.7C39.3 21.3 40.7 42.7 40.2 64.2C39.7 85.7 37.3 107.3 38.7 128.8C40 150.3 45 171.7 46.8 193C48.7 214.3 47.3 235.7 45.5 257C43.7 278.3 41.3 299.7 41.7 321.2C42 342.7 45 364.3 43.5 385.8C42 407.3 36 428.7 34.2 450C32.3 471.3 34.7 492.7 35.5 514.2C36.3 535.7 35.7 557.3 37.5 578.8C39.3 600.3 43.7 621.7 43.5 643C43.3 664.3 38.7 685.7 37.3 707C36 728.3 38 749.7 38 771.2C38 792.7 36 814.3 36.5 835.8C37 857.3 40 878.7 41.5 889.3L43 900L0 900L0 889.3C0 878.7 0 857.3 0 835.8C0 814.3 0 792.7 0 771.2C0 749.7 0 728.3 0 707C0 685.7 0 664.3 0 643C0 621.7 0 600.3 0 578.8C0 557.3 0 535.7 0 514.2C0 492.7 0 471.3 0 450C0 428.7 0 407.3 0 385.8C0 364.3 0 342.7 0 321.2C0 299.7 0 278.3 0 257C0 235.7 0 214.3 0 193C0 171.7 0 150.3 0 128.8C0 107.3 0 85.7 0 64.2C0 42.7 0 21.3 0 10.7L0 0Z" fill="#0899ec"></path><path d="M28 0L26.7 10.7C25.3 21.3 22.7 42.7 23.7 64.2C24.7 85.7 29.3 107.3 31.2 128.8C33 150.3 32 171.7 32.3 193C32.7 214.3 34.3 235.7 34.5 257C34.7 278.3 33.3 299.7 31 321.2C28.7 342.7 25.3 364.3 25.2 385.8C25 407.3 28 428.7 28 450C28 471.3 25 492.7 23.5 514.2C22 535.7 22 557.3 24.3 578.8C26.7 600.3 31.3 621.7 32.7 643C34 664.3 32 685.7 29.2 707C26.3 728.3 22.7 749.7 21.8 771.2C21 792.7 23 814.3 23.8 835.8C24.7 857.3 24.3 878.7 24.2 889.3L24 900L0 900L0 889.3C0 878.7 0 857.3 0 835.8C0 814.3 0 792.7 0 771.2C0 749.7 0 728.3 0 707C0 685.7 0 664.3 0 643C0 621.7 0 600.3 0 578.8C0 557.3 0 535.7 0 514.2C0 492.7 0 471.3 0 450C0 428.7 0 407.3 0 385.8C0 364.3 0 342.7 0 321.2C0 299.7 0 278.3 0 257C0 235.7 0 214.3 0 193C0 171.7 0 150.3 0 128.8C0 107.3 0 85.7 0 64.2C0 42.7 0 21.3 0 10.7L0 0Z" fill="#00abd9"></path><path d="M21 0L20.8 10.7C20.7 21.3 20.3 42.7 19.8 64.2C19.3 85.7 18.7 107.3 17.5 128.8C16.3 150.3 14.7 171.7 14.8 193C15 214.3 17 235.7 16.8 257C16.7 278.3 14.3 299.7 14.8 321.2C15.3 342.7 18.7 364.3 19.7 385.8C20.7 407.3 19.3 428.7 18.2 450C17 471.3 16 492.7 16.5 514.2C17 535.7 19 557.3 18 578.8C17 600.3 13 621.7 12 643C11 664.3 13 685.7 15.2 707C17.3 728.3 19.7 749.7 20.7 771.2C21.7 792.7 21.3 814.3 21.2 835.8C21 857.3 21 878.7 21 889.3L21 900L0 900L0 889.3C0 878.7 0 857.3 0 835.8C0 814.3 0 792.7 0 771.2C0 749.7 0 728.3 0 707C0 685.7 0 664.3 0 643C0 621.7 0 600.3 0 578.8C0 557.3 0 535.7 0 514.2C0 492.7 0 471.3 0 450C0 428.7 0 407.3 0 385.8C0 364.3 0 342.7 0 321.2C0 299.7 0 278.3 0 257C0 235.7 0 214.3 0 193C0 171.7 0 150.3 0 128.8C0 107.3 0 85.7 0 64.2C0 42.7 0 21.3 0 10.7L0 0Z" fill="#15b998"></path></svg>