<?xml version="1.0" standalone="no"?>
<!DOCTYPE svg PUBLIC "-//W3C//DTD SVG 20010904//EN"
 "http://www.w3.org/TR/2001/REC-SVG-20010904/DTD/svg10.dtd">
<svg version="1.0" xmlns="http://www.w3.org/2000/svg"
 width="172.000000pt" height="214.000000pt" viewBox="0 0 172.000000 214.000000"
 preserveAspectRatio="xMidYMid meet">

<g transform="translate(0.000000,214.000000) scale(0.100000,-0.100000)"
fill="#000000" stroke="none">
<path d="M257 2129 c-99 -23 -192 -103 -226 -195 -21 -54 -21 -71 -21 -864 0
-793 0 -810 21 -864 26 -70 92 -139 167 -174 l57 -27 605 0 605 0 57 27 c75
35 141 104 167 174 20 53 21 73 21 674 l0 620 -283 0 c-309 0 -311 0 -342 60
-12 24 -15 80 -15 305 l0 275 -387 -1 c-214 -1 -405 -5 -426 -10z m648 -645
c31 -14 65 -64 65 -94 0 -30 -34 -80 -65 -94 -48 -23 -362 -23 -410 0 -31 14
-65 64 -65 94 0 29 34 79 63 94 47 23 364 23 412 0z m326 -430 c37 -19 63 -74
54 -115 -4 -16 -20 -40 -37 -54 l-30 -25 -357 0 c-341 0 -360 1 -383 20 -60
47 -57 133 6 171 29 18 53 19 374 19 292 0 348 -2 373 -16z m11 -434 c60 -47
57 -133 -6 -171 -29 -18 -53 -19 -374 -19 -383 0 -391 1 -418 67 -20 46 -10
86 28 118 l30 25 357 0 c341 0 360 -1 383 -20z"/>
<path d="M1290 1890 l0 -180 182 0 183 0 -180 180 c-99 99 -181 180 -182 180
-2 0 -3 -81 -3 -180z"/>
</g>
</svg>
