<svg width="444" height="363" viewBox="0 0 444 363" fill="none" xmlns="http://www.w3.org/2000/svg">
<path d="M0 347H444V353C444 358.523 439.523 363 434 363H9.99999C4.47715 363 0 358.523 0 353V347Z" fill="#656161"/>
<path fill-rule="evenodd" clip-rule="evenodd" d="M375.5 295.5H64.5L3.5 343H440L375.5 295.5ZM71 304.5H371L404.5 332.5H36.5L71 304.5Z" fill="#656161"/>
<path d="M64.5 295.5V295H64.3283L64.1928 295.105L64.5 295.5ZM375.5 295.5L375.796 295.097L375.664 295H375.5V295.5ZM3.5 343L3.19281 342.605L2.04408 343.5H3.5V343ZM440 343V343.5H441.522L440.296 342.597L440 343ZM371 304.5L371.321 304.116L371.181 304H371V304.5ZM71 304.5V304H70.8226L70.6849 304.112L71 304.5ZM404.5 332.5V333H405.878L404.821 332.116L404.5 332.5ZM36.5 332.5L36.1849 332.112L35.0905 333H36.5V332.5ZM64.5 296H375.5V295H64.5V296ZM3.80719 343.395L64.8072 295.895L64.1928 295.105L3.19281 342.605L3.80719 343.395ZM440 342.5H3.5V343.5H440V342.5ZM375.204 295.903L439.704 343.403L440.296 342.597L375.796 295.097L375.204 295.903ZM371 304H71V305H371V304ZM404.821 332.116L371.321 304.116L370.679 304.884L404.179 332.884L404.821 332.116ZM36.5 333H404.5V332H36.5V333ZM70.6849 304.112L36.1849 332.112L36.8151 332.888L71.3151 304.888L70.6849 304.112Z" fill="#656161"/>
<path fill-rule="evenodd" clip-rule="evenodd" d="M76 84C69.3726 84 64 89.3726 64 96V277C64 283.627 69.3726 289 76 289H364C370.627 289 376 283.627 376 277V96C376 89.3726 370.627 84 364 84H76ZM84 95C79.0294 95 75 99.0294 75 104V270C75 274.971 79.0294 279 84 279H355C359.971 279 364 274.971 364 270V104C364 99.0294 359.971 95 355 95H84Z" fill="#656161"/>
<path d="M169 14C169 6.26801 175.268 0 183 0H253C260.732 0 267 6.26801 267 14V279H169V14Z" fill="#15B998"/>
<rect x="169" y="202" width="98" height="43" fill="#656161"/>
<rect x="169" y="146" width="98" height="19" fill="#656161"/>
<path d="M249.11 71.2458C248.147 63.5592 253.602 56.5475 261.295 55.5848L313.034 49.1102C320.728 48.1475 327.745 53.5983 328.709 61.2849L356 279H274.941L249.11 71.2458Z" fill="#0899EC"/>
<path d="M268.388 225.033L347.987 215.073L352.462 250.772L272.863 260.733L268.388 225.033Z" fill="#656161"/>
<path d="M262.56 178.541L342.159 168.58L344.136 184.354L264.537 194.315L262.56 178.541Z" fill="#656161"/>
<path d="M90 58C90 52.4771 94.4772 48 100 48H151C156.523 48 161 52.4772 161 58V279H90V58Z" fill="#0899EC"/>
<rect x="101" y="208" width="48" height="45" fill="#656161"/>
<rect x="90" y="100" width="71" height="8" fill="#656161"/>
<rect x="90" y="113" width="71" height="8" fill="#656161"/>
</svg>
