<?xml version="1.0" standalone="no"?>
<!DOCTYPE svg PUBLIC "-//W3C//DTD SVG 20010904//EN"
 "http://www.w3.org/TR/2001/REC-SVG-20010904/DTD/svg10.dtd">
<svg version="1.0" xmlns="http://www.w3.org/2000/svg"
 width="429.000000pt" height="512.000000pt" viewBox="0 0 429.000000 512.000000"
 preserveAspectRatio="xMidYMid meet">

<g transform="translate(0.000000,512.000000) scale(0.100000,-0.100000)"
fill="#000000" stroke="none">
<path d="M2020 4206 c-216 -45 -431 -178 -674 -415 -111 -109 -316 -338 -316
-354 0 -3 22 -10 49 -17 30 -7 66 -26 90 -47 87 -74 108 -158 121 -466 5 -135
13 -234 19 -241 8 -10 7 -17 -5 -27 -43 -35 -61 -142 -44 -256 22 -144 73
-221 164 -244 41 -10 44 -13 50 -52 10 -66 53 -143 118 -213 l61 -64 -18 -48
c-10 -26 -33 -77 -52 -114 -28 -57 -41 -72 -85 -97 -84 -48 -276 -106 -548
-165 -362 -79 -451 -103 -574 -153 -59 -24 -149 -58 -200 -75 -141 -47 -140
-44 -49 -163 158 -205 395 -425 617 -572 470 -312 1069 -464 1621 -413 600 56
1135 299 1559 710 109 105 296 320 296 339 0 13 -20 27 -95 64 -38 20 -106 56
-149 81 -99 57 -194 88 -511 170 -350 90 -498 146 -577 215 -18 16 -59 65 -91
109 l-58 81 80 76 c81 78 141 171 141 221 0 38 11 54 36 54 14 0 39 6 58 14
37 15 55 49 105 193 54 160 39 248 -51 283 -18 8 -35 15 -37 16 -2 2 15 24 37
49 50 57 104 159 134 255 20 66 23 94 22 235 0 144 -3 169 -27 248 -82 266
-264 456 -478 498 -52 10 -64 19 -135 88 -88 86 -187 149 -284 181 -84 27
-232 34 -320 16z"/>
</g>
</svg>
