<?xml version="1.0" standalone="no"?>
<!DOCTYPE svg PUBLIC "-//W3C//DTD SVG 20010904//EN"
 "http://www.w3.org/TR/2001/REC-SVG-20010904/DTD/svg10.dtd">
<svg version="1.0" xmlns="http://www.w3.org/2000/svg"
 width="821.000000pt" height="982.000000pt" viewBox="0 0 821.000000 982.000000"
 preserveAspectRatio="xMidYMid meet">

<g transform="translate(0.000000,982.000000) scale(0.100000,-0.100000)"
fill="#000000" stroke="none">
<path d="M3935 8941 c-3 -6 -24 -11 -45 -11 -40 0 -85 -9 -190 -38 -192 -52
-380 -131 -553 -233 -32 -19 -66 -38 -76 -44 -25 -14 -154 -98 -166 -108 -5
-4 -41 -30 -80 -58 -74 -53 -74 -52 -150 -114 -232 -185 -533 -479 -765 -745
-35 -41 -67 -77 -70 -80 -3 -3 -24 -27 -45 -55 -22 -27 -43 -52 -46 -55 -28
-24 -159 -198 -157 -209 2 -7 26 -20 53 -28 198 -56 268 -100 344 -213 79
-117 126 -274 157 -515 21 -173 29 -649 15 -1000 -32 -810 -70 -1073 -182
-1259 -48 -80 -56 -113 -35 -154 44 -85 252 -207 481 -281 164 -53 481 -118
810 -165 l90 -12 -3 -70 c-11 -237 -101 -385 -332 -546 -101 -70 -260 -158
-377 -207 -65 -28 -241 -78 -353 -101 -25 -5 -76 -16 -115 -25 -95 -21 -141
-31 -275 -59 -271 -58 -418 -93 -570 -135 -82 -24 -81 -23 -194 -75 -87 -41
-147 -63 -371 -138 -165 -55 -192 -67 -218 -96 -18 -20 -17 -22 35 -94 29 -40
58 -80 65 -88 246 -311 492 -558 835 -835 23 -19 290 -205 335 -234 129 -82
400 -226 583 -309 252 -114 682 -249 930 -293 25 -4 70 -13 100 -18 235 -45
474 -65 780 -65 305 0 474 14 745 60 142 25 152 27 355 74 129 30 463 140 590
195 160 68 185 80 303 138 164 81 310 165 462 266 136 90 323 228 389 286 6 6
52 45 101 87 110 93 375 361 477 483 41 50 85 99 97 109 11 11 21 23 21 28 0
5 18 33 40 62 22 29 40 59 40 67 0 20 -72 65 -217 137 -67 33 -146 76 -175 94
-48 30 -202 109 -253 129 -74 29 -436 133 -575 164 -41 9 -86 21 -100 25 -14
5 -92 25 -175 45 -82 20 -190 50 -240 66 -118 40 -367 162 -480 237 -125 83
-261 226 -311 327 -36 72 -38 83 -42 190 l-4 114 33 5 c19 3 90 13 159 22 292
38 680 124 871 194 168 61 320 165 359 246 27 54 24 70 -35 164 -119 194 -134
336 -160 1540 -8 382 -20 797 -25 921 -29 658 -160 1194 -370 1519 -99 152
-266 305 -420 384 -112 58 -222 91 -361 111 -63 8 -148 20 -189 26 -59 8 -102
23 -205 74 -123 61 -188 83 -400 135 -142 36 -189 42 -372 47 -115 3 -173 1
-178 -6z"/>
</g>
</svg>
